<?xml version="1.0" encoding="utf-8"?>
<!-- Generator: Adobe Illustrator 24.1.0, SVG Export Plug-In . SVG Version: 6.00 Build 0)  -->
<svg version="1.1" id="Camada_1" xmlns="http://www.w3.org/2000/svg" xmlns:xlink="http://www.w3.org/1999/xlink" x="0px" y="0px"
	 viewBox="0 0 960 920" style="enable-background:new 0 0 960 920;" xml:space="preserve">
<g>
	<g>
		<path d="M544.5,409.3c-2.6,0-5-1.3-6.4-3.5l-96.5-153.3c-1.5-2.3-1.5-5.2-0.2-7.6c1.3-2.4,3.8-3.9,6.5-3.9l166.9-1.6
			c0,0,0,0,0.1,0c2.5,0,4.9,1.3,6.3,3.4c1.4,2.2,1.6,4.9,0.5,7.2l-70.4,154.9c-1.1,2.5-3.6,4.2-6.3,4.4
			C544.8,409.3,544.7,409.3,544.5,409.3z M461.5,255.8l81.9,130.1l59.7-131.4L461.5,255.8z"/>
	</g>
	<g>
		<path d="M551,678.7c-2.5,0-5-1.3-6.4-3.6L320,312.9c-1.1-1.7-1.4-3.7-0.9-5.7c0.5-1.9,1.7-3.6,3.4-4.7l84.5-52.4
			c3.5-2.2,8.2-1.1,10.4,2.4l224.5,362.3c1,1.7,1.4,3.7,0.9,5.7c-0.5,1.9-1.7,3.6-3.4,4.7l-84.5,52.4
			C553.7,678.4,552.3,678.7,551,678.7z M336.8,311.3l216.6,349.5l71.8-44.5L408.5,266.9L336.8,311.3z"/>
	</g>
	<g>
		<path d="M511.2,679.1C511.2,679.1,511.2,679.1,511.2,679.1l-169.7-0.9c-2.6,0-5-1.3-6.3-3.5c-1.4-2.2-1.5-4.9-0.4-7.2l71.5-151.3
			c1.2-2.5,3.6-4.1,6.3-4.3c2.7-0.2,5.3,1.1,6.8,3.4l98.2,152.2c1.5,2.3,1.6,5.3,0.3,7.7C516.5,677.6,514,679.1,511.2,679.1z
			 M353.4,663.3l144,0.8L414,534.8L353.4,663.3z"/>
	</g>
</g>
</svg>
